<svg width="16" height="13" viewBox="0 0 16 13" fill="none" xmlns="http://www.w3.org/2000/svg">
<path d="M7.99999 2.66667C9.83999 2.66667 11.3333 4.16 11.3333 6C11.3333 6.43333 11.2467 6.84 11.0933 7.22L13.04 9.16667C14.0467 8.32667 14.84 7.24 15.3267 6C14.1733 3.07333 11.3267 1 7.99332 1C7.05999 1 6.16666 1.16667 5.33999 1.46667L6.77999 2.90667C7.15999 2.75333 7.56666 2.66667 7.99999 2.66667ZM1.33332 0.846667L2.85332 2.36667L3.15999 2.67333C2.05332 3.53333 1.18666 4.68 0.666656 6C1.81999 8.92667 4.66666 11 7.99999 11C9.03332 11 10.02 10.8 10.92 10.44L11.2 10.72L13.1533 12.6667L14 11.82L2.17999 0L1.33332 0.846667ZM5.01999 4.53333L6.05332 5.56667C6.01999 5.70667 5.99999 5.85333 5.99999 6C5.99999 7.10667 6.89332 8 7.99999 8C8.14666 8 8.29332 7.98 8.43332 7.94667L9.46666 8.98C9.01999 9.2 8.52666 9.33333 7.99999 9.33333C6.15999 9.33333 4.66666 7.84 4.66666 6C4.66666 5.47333 4.79999 4.98 5.01999 4.53333ZM7.89332 4.01333L9.99332 6.11333L10.0067 6.00667C10.0067 4.9 9.11332 4.00667 8.00666 4.00667L7.89332 4.01333Z" fill="#B1B1B7"/>
</svg>
