<svg width="90" height="90" viewBox="0 0 90 90" fill="none" xmlns="http://www.w3.org/2000/svg">
<path d="M45 0.375C20.3566 0.375 0.375 20.3566 0.375 45C0.375 69.6434 20.3566 89.625 45 89.625C69.6434 89.625 89.625 69.6434 89.625 45C89.625 20.3566 69.6434 0.375 45 0.375ZM64.2744 30.4271L43.2967 59.5131C43.0035 59.9223 42.617 60.2558 42.1692 60.4858C41.7214 60.7158 41.2252 60.8358 40.7218 60.8358C40.2184 60.8358 39.7222 60.7158 39.2744 60.4858C38.8266 60.2558 38.4401 59.9223 38.1469 59.5131L25.7256 42.3006C25.3471 41.7727 25.7256 41.0355 26.373 41.0355H31.0447C32.0607 41.0355 33.027 41.5236 33.6246 42.3604L40.7168 52.2018L56.3754 30.4869C56.973 29.6602 57.9293 29.1621 58.9553 29.1621H63.627C64.2744 29.1621 64.6529 29.8992 64.2744 30.4271Z" fill="#27AE60"/>
</svg>
